# 3ds Max Wavefront OBJ Exporter v0.97b - (c)2007 guruware
# File Created: 26.02.2011 09:52:56

#
# object cornell_box
#

v  5.5000 0.0000 -0.0000
v  5.5000 0.0000 -5.5000
v  -0.0000 0.0000 -0.0000
v  -0.0000 0.0000 -5.5000
v  5.5000 5.5000 -5.5000
v  -0.0000 5.5000 -5.5000
v  3.0000 5.5000 -2.5000
v  5.5000 5.5000 -0.0000
v  -0.0000 5.5000 -0.0000
v  3.0000 5.5000 -3.0000
v  2.5000 5.5000 -2.5000
v  2.5000 5.5000 -3.0000
# 12 vertices

vn 0.0000 1.0000 -0.0000
vn 0.0000 0.0000 1.0000
vn 0.0000 -1.0000 -0.0000
# 3 vertex normals

g cornell_box
s off
f 1//1 2//1 3//1 
f 2//1 4//1 3//1 
f 2//2 5//2 4//2 
f 5//2 6//2 4//2 
f 7//3 8//3 9//3 
f 7//3 5//3 8//3 
f 10//3 5//3 7//3 
f 6//3 5//3 10//3 
f 11//3 7//3 9//3 
f 6//3 11//3 9//3 
f 6//3 12//3 11//3 
f 6//3 10//3 12//3 
# 12 faces

