# 3ds Max Wavefront OBJ Exporter v0.97b - (c)2007 guruware
# File Created: 09.03.2011 09:57:47

#
# object flower02Body
#

v  -0.0020 0.0001 0.0000
v  0.0006 0.0300 0.0022
v  -0.0003 0.0302 0.0007
v  -0.0010 0.0000 0.0017
v  0.0023 0.0298 0.0022
v  0.0010 -0.0001 0.0017
v  0.0032 0.0297 0.0007
v  0.0020 -0.0001 -0.0000
v  0.0023 0.0299 -0.0008
v  0.0010 -0.0000 -0.0017
v  0.0006 0.0301 -0.0008
v  -0.0010 0.0001 -0.0017
v  0.0065 0.0596 0.0029
v  0.0058 0.0597 0.0016
v  0.0080 0.0593 0.0029
v  0.0087 0.0592 0.0016
v  0.0080 0.0593 0.0003
v  0.0066 0.0596 0.0003
v  0.0128 0.0888 0.0030
v  0.0122 0.0889 0.0020
v  0.0140 0.0887 0.0030
v  0.0146 0.0886 0.0020
v  0.0140 0.0886 0.0009
v  0.0128 0.0888 0.0009
v  0.0146 0.1187 0.0019
v  0.0141 0.1187 0.0010
v  0.0156 0.1186 0.0019
v  0.0161 0.1186 0.0010
v  0.0156 0.1186 0.0002
v  0.0146 0.1187 0.0002
v  0.0162 0.1488 0.0030
v  0.0157 0.1489 0.0021
v  0.0172 0.1487 0.0030
v  0.0177 0.1487 0.0021
v  0.0172 0.1488 0.0012
v  0.0162 0.1489 0.0012
v  0.0170 0.1553 0.0033
v  0.0165 0.1554 0.0025
v  0.0179 0.1552 0.0033
v  0.0185 0.1552 0.0025
v  0.0180 0.1553 0.0016
v  0.0170 0.1554 0.0016
v  0.0221 0.1542 0.0025
v  0.0167 0.1490 0.0021
v  0.0215 0.1544 0.0001
v  0.0198 0.1547 -0.0017
v  0.0174 0.1550 -0.0023
v  0.0151 0.1553 -0.0017
v  0.0133 0.1554 0.0001
v  0.0127 0.1553 0.0024
v  0.0133 0.1551 0.0048
v  0.0150 0.1548 0.0066
v  0.0174 0.1545 0.0072
v  0.0197 0.1542 0.0066
v  0.0215 0.1541 0.0048
# 55 vertices

vn -0.9984 0.0568 0.0005
vn -0.5144 0.0485 0.8562
vn -0.9915 0.1298 0.0001
vn -0.4998 0.0116 0.8661
vn 0.4770 -0.0728 0.8759
vn 0.4990 -0.0364 0.8658
vn 0.9937 -0.1120 -0.0011
vn 0.9992 -0.0391 -0.0000
vn 0.4812 -0.0258 -0.8762
vn 0.5007 0.0062 -0.8656
vn -0.5090 0.0943 -0.8556
vn -0.4982 0.0541 -0.8654
vn -0.4905 0.0905 0.8668
vn -0.9781 0.2079 0.0046
vn 0.4872 -0.1083 0.8666
vn 0.9817 -0.1905 0.0011
vn 0.4936 -0.0729 -0.8666
vn -0.4886 0.1267 -0.8633
vn -0.4721 0.0792 0.8780
vn -0.9902 0.1393 0.0079
vn 0.5115 -0.0516 0.8577
vn 0.9923 -0.1238 0.0061
vn 0.5154 -0.0690 -0.8542
vn -0.4802 0.0629 -0.8749
vn -0.5047 0.0293 0.8628
vn -0.9983 0.0578 -0.0124
vn 0.5035 -0.0257 0.8636
vn 0.9986 -0.0511 -0.0091
vn 0.4970 -0.0223 -0.8675
vn -0.4925 0.0317 -0.8697
vn -0.5133 0.0038 0.8582
vn -0.9962 0.0867 -0.0058
vn 0.4856 -0.0834 0.8702
vn 0.9963 -0.0863 -0.0015
vn 0.4937 -0.0016 -0.8696
vn -0.4991 0.0842 -0.8625
vn -0.5029 0.0101 0.8643
vn -0.9926 0.1211 -0.0005
vn 0.4898 -0.1110 0.8648
vn 0.9926 -0.1211 0.0005
vn 0.5029 -0.0101 -0.8643
vn -0.4898 0.1110 -0.8648
vn 0.6924 -0.7206 -0.0367
vn -0.1212 -0.9909 -0.0593
vn 0.5926 -0.6853 -0.4234
vn 0.3134 -0.6341 -0.7069
vn -0.0704 -0.5810 -0.8109
vn -0.4560 -0.5400 -0.7074
vn -0.7397 -0.5223 -0.4243
vn -0.8456 -0.5325 -0.0374
vn -0.7453 -0.5679 0.3493
vn -0.4659 -0.6190 0.6323
vn -0.0823 -0.6721 0.7359
vn 0.3028 -0.7130 0.6324
vn 0.5863 -0.7308 0.3497
# 55 vertex normals

vt 0.0000 0.0000 0.0000
vt 0.1667 0.1913 0.0000
vt 0.0000 0.1913 0.0000
vt 0.1667 0.0000 0.0000
vt 0.3333 0.1913 0.0000
vt 0.3333 0.0000 0.0000
vt 0.5000 0.1913 0.0000
vt 0.5000 0.0000 0.0000
vt 0.6667 0.1913 0.0000
vt 0.6667 0.0000 0.0000
vt 0.8333 0.1913 0.0000
vt 0.8333 0.0000 0.0000
vt 1.0000 0.1913 0.0000
vt 1.0000 0.0000 0.0000
vt 0.1667 0.3833 0.0000
vt 0.0000 0.3833 0.0000
vt 0.3333 0.3833 0.0000
vt 0.5000 0.3833 0.0000
vt 0.6667 0.3833 0.0000
vt 0.8333 0.3833 0.0000
vt 1.0000 0.3833 0.0000
vt 0.1667 0.5741 0.0000
vt 0.0000 0.5741 0.0000
vt 0.3333 0.5741 0.0000
vt 0.5000 0.5741 0.0000
vt 0.6667 0.5741 0.0000
vt 0.8333 0.5741 0.0000
vt 1.0000 0.5741 0.0000
vt 0.1667 0.7654 0.0000
vt 0.0000 0.7654 0.0000
vt 0.3333 0.7654 0.0000
vt 0.5000 0.7654 0.0000
vt 0.6667 0.7654 0.0000
vt 0.8333 0.7654 0.0000
vt 1.0000 0.7654 0.0000
vt 0.1667 0.9581 0.0000
vt 0.0000 0.9581 0.0000
vt 0.3333 0.9581 0.0000
vt 0.5000 0.9581 0.0000
vt 0.6667 0.9581 0.0000
vt 0.8333 0.9581 0.0000
vt 1.0000 0.9581 0.0000
vt 0.1667 1.0000 0.0000
vt 0.0000 1.0000 0.0000
vt 0.3333 1.0000 0.0000
vt 0.5000 1.0000 0.0000
vt 0.6667 1.0000 0.0000
vt 0.8333 1.0000 0.0000
vt 1.0000 1.0000 0.0000
vt 0.9995 0.9995 0.5000
vt 0.4999 0.0005 0.4998
vt 0.9326 0.9995 0.2502
vt 0.7498 0.9995 0.0674
vt 0.5000 0.9995 0.0005
vt 0.2502 0.9995 0.0674
vt 0.0674 0.9995 0.2502
vt 0.0005 0.9995 0.5000
vt 0.0674 0.9995 0.7498
vt 0.2502 0.9995 0.9326
vt 0.5000 0.9995 0.9995
vt 0.7497 0.9995 0.9326
vt 0.9326 0.9995 0.7498
# 62 texture coords

g flower02Body
s 1
f 1/1/1 2/2/2 3/3/3 
f 1/1/1 4/4/4 2/2/2 
f 4/4/4 5/5/5 2/2/2 
f 4/4/4 6/6/6 5/5/5 
f 6/6/6 7/7/7 5/5/5 
f 6/6/6 8/8/8 7/7/7 
f 8/8/8 9/9/9 7/7/7 
f 8/8/8 10/10/10 9/9/9 
f 10/10/10 11/11/11 9/9/9 
f 10/10/10 12/12/12 11/11/11 
f 12/12/12 3/13/3 11/11/11 
f 12/12/12 1/14/1 3/13/3 
f 3/3/3 13/15/13 14/16/14 
f 3/3/3 2/2/2 13/15/13 
f 2/2/2 15/17/15 13/15/13 
f 2/2/2 5/5/5 15/17/15 
f 5/5/5 16/18/16 15/17/15 
f 5/5/5 7/7/7 16/18/16 
f 7/7/7 17/19/17 16/18/16 
f 7/7/7 9/9/9 17/19/17 
f 9/9/9 18/20/18 17/19/17 
f 9/9/9 11/11/11 18/20/18 
f 11/11/11 14/21/14 18/20/18 
f 11/11/11 3/13/3 14/21/14 
f 14/16/14 19/22/19 20/23/20 
f 14/16/14 13/15/13 19/22/19 
f 13/15/13 21/24/21 19/22/19 
f 13/15/13 15/17/15 21/24/21 
f 15/17/15 22/25/22 21/24/21 
f 15/17/15 16/18/16 22/25/22 
f 16/18/16 23/26/23 22/25/22 
f 16/18/16 17/19/17 23/26/23 
f 17/19/17 24/27/24 23/26/23 
f 17/19/17 18/20/18 24/27/24 
f 18/20/18 20/28/20 24/27/24 
f 18/20/18 14/21/14 20/28/20 
f 20/23/20 25/29/25 26/30/26 
f 20/23/20 19/22/19 25/29/25 
f 19/22/19 27/31/27 25/29/25 
f 19/22/19 21/24/21 27/31/27 
f 21/24/21 28/32/28 27/31/27 
f 21/24/21 22/25/22 28/32/28 
f 22/25/22 29/33/29 28/32/28 
f 22/25/22 23/26/23 29/33/29 
f 23/26/23 30/34/30 29/33/29 
f 23/26/23 24/27/24 30/34/30 
f 24/27/24 26/35/26 30/34/30 
f 24/27/24 20/28/20 26/35/26 
f 26/30/26 31/36/31 32/37/32 
f 26/30/26 25/29/25 31/36/31 
f 25/29/25 33/38/33 31/36/31 
f 25/29/25 27/31/27 33/38/33 
f 27/31/27 34/39/34 33/38/33 
f 27/31/27 28/32/28 34/39/34 
f 28/32/28 35/40/35 34/39/34 
f 28/32/28 29/33/29 35/40/35 
f 29/33/29 36/41/36 35/40/35 
f 29/33/29 30/34/30 36/41/36 
f 30/34/30 32/42/32 36/41/36 
f 30/34/30 26/35/26 32/42/32 
f 32/37/32 37/43/37 38/44/38 
f 32/37/32 31/36/31 37/43/37 
f 31/36/31 39/45/39 37/43/37 
f 31/36/31 33/38/33 39/45/39 
f 33/38/33 40/46/40 39/45/39 
f 33/38/33 34/39/34 40/46/40 
f 34/39/34 41/47/41 40/46/40 
f 34/39/34 35/40/35 41/47/41 
f 35/40/35 42/48/42 41/47/41 
f 35/40/35 36/41/36 42/48/42 
f 36/41/36 38/49/38 42/48/42 
f 36/41/36 32/42/32 38/49/38 
s 4
f 43/50/43 44/51/44 45/52/45 
f 45/52/45 44/51/44 46/53/46 
f 46/53/46 44/51/44 47/54/47 
f 47/54/47 44/51/44 48/55/48 
f 48/55/48 44/51/44 49/56/49 
f 49/56/49 44/51/44 50/57/50 
f 50/57/50 44/51/44 51/58/51 
f 51/58/51 44/51/44 52/59/52 
f 52/59/52 44/51/44 53/60/53 
f 53/60/53 44/51/44 54/61/54 
f 54/61/54 44/51/44 55/62/55 
f 55/62/55 44/51/44 43/50/43 
# 84 faces

