# 3ds Max Wavefront OBJ Exporter v0.97b - (c)2007 guruware
# File Created: 08.03.2011 17:26:56

#
# object Plane001
#

v  -11.6883 0.0000 -15.1948
v  -11.6883 0.0000 8.5714
v  21.9480 0.0000 -15.1948
v  21.9480 0.0000 8.5714
v  55.5844 0.0000 -15.1948
v  55.5844 0.0000 8.5714
v  89.2208 0.0000 -15.1948
v  89.2208 0.0000 8.5714
v  122.8571 0.0000 -15.1948
v  122.8571 0.0000 8.5714
v  -11.6883 0.0000 -38.9610
v  21.9480 0.0000 -38.9610
v  55.5844 0.0000 -38.9610
v  89.2208 0.0000 -38.9610
v  122.8571 0.0000 -38.9610
v  -11.6883 0.0000 -62.7273
v  21.9480 0.0000 -62.7273
v  55.5844 0.0000 -62.7273
v  89.2208 0.0000 -62.7273
v  122.8571 0.0000 -62.7273
v  -11.6883 0.0000 -86.4935
v  21.9480 0.0000 -86.4935
v  55.5844 0.0000 -86.4935
v  89.2208 0.0000 -86.4935
v  122.8571 0.0000 -86.4935
# 25 vertices

vn 0.0000 1.0000 -0.0000
# 1 vertex normals

vt -33.1364 -7.4221 0.5000
vt -33.1364 -15.3442 0.5000
vt -16.3182 -7.4221 0.5000
vt -16.3182 -15.3442 0.5000
vt 0.5000 -7.4221 0.5000
vt 0.5000 -15.3442 0.5000
vt 17.3182 -7.4221 0.5000
vt 17.3182 -15.3442 0.5000
vt 34.1364 -7.4221 0.5000
vt 34.1364 -15.3442 0.5000
vt -33.1364 0.5000 0.5000
vt -16.3182 0.5000 0.5000
vt 0.5000 0.5000 0.5000
vt 17.3182 0.5000 0.5000
vt 34.1364 0.5000 0.5000
vt -33.1364 8.4221 0.5000
vt -16.3182 8.4221 0.5000
vt 0.5000 8.4221 0.5000
vt 17.3182 8.4221 0.5000
vt 34.1364 8.4221 0.5000
vt -33.1364 16.3442 0.5000
vt -16.3182 16.3442 0.5000
vt 0.5000 16.3442 0.5000
vt 17.3182 16.3442 0.5000
vt 34.1364 16.3442 0.5000
# 25 texture coords

g Plane001
s 1
f 1/1/1 2/2/1 3/3/1 
f 4/4/1 3/3/1 2/2/1 
f 3/3/1 4/4/1 5/5/1 
f 6/6/1 5/5/1 4/4/1 
f 5/5/1 6/6/1 7/7/1 
f 8/8/1 7/7/1 6/6/1 
f 7/7/1 8/8/1 9/9/1 
f 10/10/1 9/9/1 8/8/1 
f 11/11/1 1/1/1 12/12/1 
f 3/3/1 12/12/1 1/1/1 
f 12/12/1 3/3/1 13/13/1 
f 5/5/1 13/13/1 3/3/1 
f 13/13/1 5/5/1 14/14/1 
f 7/7/1 14/14/1 5/5/1 
f 14/14/1 7/7/1 15/15/1 
f 9/9/1 15/15/1 7/7/1 
f 16/16/1 11/11/1 17/17/1 
f 12/12/1 17/17/1 11/11/1 
f 17/17/1 12/12/1 18/18/1 
f 13/13/1 18/18/1 12/12/1 
f 18/18/1 13/13/1 19/19/1 
f 14/14/1 19/19/1 13/13/1 
f 19/19/1 14/14/1 20/20/1 
f 15/15/1 20/20/1 14/14/1 
f 21/21/1 16/16/1 22/22/1 
f 17/17/1 22/22/1 16/16/1 
f 22/22/1 17/17/1 23/23/1 
f 18/18/1 23/23/1 17/17/1 
f 23/23/1 18/18/1 24/24/1 
f 19/19/1 24/24/1 18/18/1 
f 24/24/1 19/19/1 25/25/1 
f 20/20/1 25/25/1 19/19/1 
# 32 faces

