# 3ds Max Wavefront OBJ Exporter v0.97b - (c)2007 guruware
# File Created: 09.03.2011 09:58:16

#
# object flower02Bulb
#

v  0.0177 0.1574 0.0026
v  0.0209 0.1563 0.0026
v  0.0205 0.1564 0.0009
v  0.0193 0.1567 -0.0003
v  0.0177 0.1569 -0.0007
v  0.0160 0.1571 -0.0003
v  0.0148 0.1571 0.0009
v  0.0143 0.1571 0.0026
v  0.0148 0.1569 0.0042
v  0.0160 0.1567 0.0054
v  0.0176 0.1565 0.0059
v  0.0193 0.1563 0.0054
v  0.0205 0.1562 0.0042
v  0.0214 0.1555 0.0003
v  0.0220 0.1553 0.0025
v  0.0198 0.1558 -0.0013
v  0.0176 0.1561 -0.0019
v  0.0153 0.1563 -0.0014
v  0.0137 0.1564 0.0003
v  0.0131 0.1564 0.0025
v  0.0137 0.1562 0.0047
v  0.0153 0.1559 0.0064
v  0.0175 0.1556 0.0070
v  0.0197 0.1553 0.0064
v  0.0213 0.1552 0.0047
v  0.0215 0.1544 0.0001
v  0.0221 0.1542 0.0025
v  0.0198 0.1547 -0.0017
v  0.0174 0.1550 -0.0023
v  0.0151 0.1553 -0.0017
v  0.0133 0.1554 0.0001
v  0.0127 0.1553 0.0024
v  0.0133 0.1551 0.0048
v  0.0150 0.1548 0.0066
v  0.0174 0.1545 0.0072
v  0.0197 0.1542 0.0066
v  0.0215 0.1541 0.0048
# 37 vertices

vn 0.1208 0.9909 0.0588
vn 0.5412 0.8392 0.0531
vn 0.4849 0.8590 -0.1643
vn 0.3278 0.8876 -0.3236
vn 0.1121 0.9174 -0.3819
vn -0.1046 0.9403 -0.3238
vn -0.2640 0.9503 -0.1647
vn -0.3236 0.9447 0.0527
vn -0.2674 0.9250 0.2702
vn -0.1103 0.8964 0.4294
vn 0.1055 0.8666 0.4877
vn 0.3221 0.8436 0.4296
vn 0.4816 0.8336 0.2705
vn 0.7958 0.4621 -0.3914
vn 0.9053 0.4237 0.0316
vn 0.4903 0.5177 -0.7011
vn 0.0706 0.5757 -0.8146
vn -0.3508 0.6203 -0.7015
vn -0.6610 0.6398 -0.3921
vn -0.7769 0.6288 0.0308
vn -0.6674 0.5904 0.4538
vn -0.3619 0.5348 0.7635
vn 0.0577 0.4769 0.8771
vn 0.4791 0.4322 0.7639
vn 0.7894 0.4127 0.4545
vn 0.8670 0.1667 -0.4696
vn 0.9923 0.1227 0.0147
vn 0.5172 0.2304 -0.8243
vn 0.0366 0.2967 -0.9543
vn -0.4459 0.3478 -0.8247
vn -0.8011 0.3701 -0.4704
vn -0.9338 0.3576 0.0138
vn -0.8084 0.3136 0.4981
vn -0.4586 0.2499 0.8528
vn 0.0219 0.1836 0.9828
vn 0.5044 0.1324 0.8532
vn 0.8596 0.1101 0.4989
# 37 vertex normals

vt 0.5000 0.5000 0.0000
vt 0.9000 0.5000 0.0000
vt 0.8464 0.7000 0.0000
vt 0.7000 0.8464 0.0000
vt 0.5000 0.9000 0.0000
vt 0.3000 0.8464 0.0000
vt 0.1536 0.7000 0.0000
vt 0.1000 0.5000 0.0000
vt 0.1536 0.3000 0.0000
vt 0.3000 0.1536 0.0000
vt 0.5000 0.1000 0.0000
vt 0.7000 0.1536 0.0000
vt 0.8464 0.3000 0.0000
vt 0.9076 0.7354 0.0000
vt 0.9707 0.5000 0.0000
vt 0.7354 0.9076 0.0000
vt 0.5000 0.9707 0.0000
vt 0.2646 0.9076 0.0000
vt 0.0924 0.7354 0.0000
vt 0.0293 0.5000 0.0000
vt 0.0924 0.2646 0.0000
vt 0.2646 0.0924 0.0000
vt 0.5000 0.0293 0.0000
vt 0.7354 0.0924 0.0000
vt 0.9076 0.2646 0.0000
vt 0.9330 0.7500 0.0000
vt 1.0000 0.5000 0.0000
vt 0.7500 0.9330 0.0000
vt 0.5000 1.0000 0.0000
vt 0.2500 0.9330 0.0000
vt 0.0670 0.7500 0.0000
vt 0.0000 0.5000 0.0000
vt 0.0670 0.2500 0.0000
vt 0.2500 0.0670 0.0000
vt 0.5000 0.0000 0.0000
vt 0.7500 0.0670 0.0000
vt 0.9330 0.2500 0.0000
# 37 texture coords

g flower02Bulb
s 4
f 1/1/1 2/2/2 3/3/3 
f 1/1/1 3/3/3 4/4/4 
f 1/1/1 4/4/4 5/5/5 
f 1/1/1 5/5/5 6/6/6 
f 1/1/1 6/6/6 7/7/7 
f 1/1/1 7/7/7 8/8/8 
f 1/1/1 8/8/8 9/9/9 
f 1/1/1 9/9/9 10/10/10 
f 1/1/1 10/10/10 11/11/11 
f 1/1/1 11/11/11 12/12/12 
f 1/1/1 12/12/12 13/13/13 
f 1/1/1 13/13/13 2/2/2 
f 14/14/14 3/3/3 2/2/2 
f 2/2/2 15/15/15 14/14/14 
f 16/16/16 4/4/4 3/3/3 
f 3/3/3 14/14/14 16/16/16 
f 17/17/17 5/5/5 4/4/4 
f 4/4/4 16/16/16 17/17/17 
f 18/18/18 6/6/6 5/5/5 
f 5/5/5 17/17/17 18/18/18 
f 19/19/19 7/7/7 6/6/6 
f 6/6/6 18/18/18 19/19/19 
f 20/20/20 8/8/8 7/7/7 
f 7/7/7 19/19/19 20/20/20 
f 21/21/21 9/9/9 8/8/8 
f 8/8/8 20/20/20 21/21/21 
f 22/22/22 10/10/10 9/9/9 
f 9/9/9 21/21/21 22/22/22 
f 23/23/23 11/11/11 10/10/10 
f 10/10/10 22/22/22 23/23/23 
f 24/24/24 12/12/12 11/11/11 
f 11/11/11 23/23/23 24/24/24 
f 25/25/25 13/13/13 12/12/12 
f 12/12/12 24/24/24 25/25/25 
f 15/15/15 2/2/2 13/13/13 
f 13/13/13 25/25/25 15/15/15 
f 26/26/26 14/14/14 15/15/15 
f 15/15/15 27/27/27 26/26/26 
f 28/28/28 16/16/16 14/14/14 
f 14/14/14 26/26/26 28/28/28 
f 29/29/29 17/17/17 16/16/16 
f 16/16/16 28/28/28 29/29/29 
f 30/30/30 18/18/18 17/17/17 
f 17/17/17 29/29/29 30/30/30 
f 31/31/31 19/19/19 18/18/18 
f 18/18/18 30/30/30 31/31/31 
f 32/32/32 20/20/20 19/19/19 
f 19/19/19 31/31/31 32/32/32 
f 33/33/33 21/21/21 20/20/20 
f 20/20/20 32/32/32 33/33/33 
f 34/34/34 22/22/22 21/21/21 
f 21/21/21 33/33/33 34/34/34 
f 35/35/35 23/23/23 22/22/22 
f 22/22/22 34/34/34 35/35/35 
f 36/36/36 24/24/24 23/23/23 
f 23/23/23 35/35/35 36/36/36 
f 37/37/37 25/25/25 24/24/24 
f 24/24/24 36/36/36 37/37/37 
f 27/27/27 15/15/15 25/25/25 
f 25/25/25 37/37/37 27/27/27 
# 60 faces

