# 3ds Max Wavefront OBJ Exporter v0.97b - (c)2007 guruware
# File Created: 08.02.2011 17:25:40

#
# object Box001
#

v  -1.5000 0.0000 1.5000
v  -1.5000 0.0000 -1.5000
v  1.5000 0.0000 -1.5000
v  1.5000 0.0000 1.5000
v  -1.5000 3.0000 1.5000
v  1.5000 3.0000 1.5000
v  1.5000 3.0000 -1.5000
v  -1.5000 3.0000 -1.5000
# 8 vertices

vn 0.0000 -1.0000 -0.0000
vn 0.0000 1.0000 -0.0000
vn 0.0000 0.0000 1.0000
vn 1.0000 0.0000 -0.0000
vn 0.0000 0.0000 -1.0000
vn -1.0000 0.0000 -0.0000
# 6 vertex normals

vt 1.0000 0.0000 0.0000
vt 1.0000 1.0000 0.0000
vt 0.0000 1.0000 0.0000
vt 0.0000 0.0000 0.0000
# 4 texture coords

g Box001
s 2
f 1/1/1 2/2/1 3/3/1 
f 3/3/1 4/4/1 1/1/1 
s 4
f 5/4/2 6/1/2 7/2/2 
f 7/2/2 8/3/2 5/4/2 
s 8
f 1/4/3 4/1/3 6/2/3 
f 6/2/3 5/3/3 1/4/3 
s 16
f 4/4/4 3/1/4 7/2/4 
f 7/2/4 6/3/4 4/4/4 
s 32
f 3/4/5 2/1/5 8/2/5 
f 8/2/5 7/3/5 3/4/5 
s 64
f 2/4/6 1/1/6 5/2/6 
f 5/2/6 8/3/6 2/4/6 
# 12 faces

#
# object Box002
#

v  2.6737 0.0000 5.6203
v  2.6737 0.0000 2.6203
v  2.8237 0.0000 2.6203
v  2.8237 0.0000 5.6203
v  2.6737 3.0000 5.6203
v  2.8237 3.0000 5.6203
v  2.8237 3.0000 2.6203
v  2.6737 3.0000 2.6203
# 8 vertices

vn 0.0000 -1.0000 -0.0000
vn 0.0000 1.0000 -0.0000
vn 0.0000 0.0000 1.0000
vn 1.0000 0.0000 -0.0000
vn 0.0000 0.0000 -1.0000
vn -1.0000 0.0000 -0.0000
# 6 vertex normals

vt 1.0000 0.0000 0.0000
vt 1.0000 1.0000 0.0000
vt 0.0000 1.0000 0.0000
vt 0.0000 0.0000 0.0000
# 4 texture coords

g Box002
s 2
f 9/5/7 10/6/7 11/7/7 
f 11/7/7 12/8/7 9/5/7 
s 4
f 13/8/8 14/5/8 15/6/8 
f 15/6/8 16/7/8 13/8/8 
s 8
f 9/8/9 12/5/9 14/6/9 
f 14/6/9 13/7/9 9/8/9 
s 16
f 12/8/10 11/5/10 15/6/10 
f 15/6/10 14/7/10 12/8/10 
s 32
f 11/8/11 10/5/11 16/6/11 
f 16/6/11 15/7/11 11/8/11 
s 64
f 10/8/12 9/5/12 13/6/12 
f 13/6/12 16/7/12 10/8/12 
# 12 faces

#
# object Box003
#

v  5.0952 0.0000 0.5880
v  2.4868 0.0000 -0.8940
v  2.5609 0.0000 -1.0244
v  5.1693 0.0000 0.4576
v  5.0952 3.0000 0.5880
v  5.1693 3.0000 0.4576
v  2.5609 3.0000 -1.0244
v  2.4868 3.0000 -0.8940
# 8 vertices

vn 0.0000 -1.0000 -0.0000
vn 0.0000 1.0000 -0.0000
vn 0.8695 0.0000 0.4940
vn 0.4940 0.0000 -0.8695
vn -0.8695 0.0000 -0.4940
vn -0.4940 0.0000 0.8695
# 6 vertex normals

vt 1.0000 0.0000 0.0000
vt 1.0000 1.0000 0.0000
vt 0.0000 1.0000 0.0000
vt 0.0000 0.0000 0.0000
# 4 texture coords

g Box003
s 2
f 17/9/13 18/10/13 19/11/13 
f 19/11/13 20/12/13 17/9/13 
s 4
f 21/12/14 22/9/14 23/10/14 
f 23/10/14 24/11/14 21/12/14 
s 8
f 17/12/15 20/9/15 22/10/15 
f 22/10/15 21/11/15 17/12/15 
s 16
f 20/12/16 19/9/16 23/10/16 
f 23/10/16 22/11/16 20/12/16 
s 32
f 19/12/17 18/9/17 24/10/17 
f 24/10/17 23/11/17 19/12/17 
s 64
f 18/12/18 17/9/18 21/10/18 
f 21/10/18 24/11/18 18/12/18 
# 12 faces

#
# object Box004
#

v  -0.4089 0.0000 -4.5256
v  -2.8517 0.0000 -2.7842
v  -2.9388 0.0000 -2.9064
v  -0.4959 0.0000 -4.6478
v  -0.4089 3.0000 -4.5256
v  -0.4959 3.0000 -4.6478
v  -2.9388 3.0000 -2.9064
v  -2.8517 3.0000 -2.7842
# 8 vertices

vn 0.0000 -1.0000 -0.0000
vn 0.0000 1.0000 -0.0000
vn 0.8143 0.0000 -0.5805
vn -0.5805 0.0000 -0.8143
vn -0.8143 0.0000 0.5805
vn 0.5805 0.0000 0.8143
# 6 vertex normals

vt 1.0000 0.0000 0.0000
vt 1.0000 1.0000 0.0000
vt 0.0000 1.0000 0.0000
vt 0.0000 0.0000 0.0000
# 4 texture coords

g Box004
s 2
f 25/13/19 26/14/19 27/15/19 
f 27/15/19 28/16/19 25/13/19 
s 4
f 29/16/20 30/13/20 31/14/20 
f 31/14/20 32/15/20 29/16/20 
s 8
f 25/16/21 28/13/21 30/14/21 
f 30/14/21 29/15/21 25/16/21 
s 16
f 28/16/22 27/13/22 31/14/22 
f 31/14/22 30/15/22 28/16/22 
s 32
f 27/16/23 26/13/23 32/14/23 
f 32/14/23 31/15/23 27/16/23 
s 64
f 26/16/24 25/13/24 29/14/24 
f 29/14/24 32/15/24 26/16/24 
# 12 faces

#
# object Box005
#

v  3.4722 0.0000 -3.8461
v  0.9000 0.0000 -5.3901
v  0.9772 0.0000 -5.5187
v  3.5494 0.0000 -3.9747
v  3.4722 3.0000 -3.8461
v  3.5494 3.0000 -3.9747
v  0.9772 3.0000 -5.5187
v  0.9000 3.0000 -5.3901
# 8 vertices

vn 0.0000 -1.0000 -0.0000
vn 0.0000 1.0000 -0.0000
vn 0.8574 0.0000 0.5147
vn 0.5147 0.0000 -0.8574
vn -0.8574 0.0000 -0.5147
vn -0.5147 0.0000 0.8574
# 6 vertex normals

vt 1.0000 0.0000 0.0000
vt 1.0000 1.0000 0.0000
vt 0.0000 1.0000 0.0000
vt 0.0000 0.0000 0.0000
# 4 texture coords

g Box005
s 2
f 33/17/25 34/18/25 35/19/25 
f 35/19/25 36/20/25 33/17/25 
s 4
f 37/20/26 38/17/26 39/18/26 
f 39/18/26 40/19/26 37/20/26 
s 8
f 33/20/27 36/17/27 38/18/27 
f 38/18/27 37/19/27 33/20/27 
s 16
f 36/20/28 35/17/28 39/18/28 
f 39/18/28 38/19/28 36/20/28 
s 32
f 35/20/29 34/17/29 40/18/29 
f 40/18/29 39/19/29 35/20/29 
s 64
f 34/20/30 33/17/30 37/18/30 
f 37/18/30 40/19/30 34/20/30 
# 12 faces

#
# object Box006
#

v  -1.4500 0.0500 1.4500
v  -1.4500 0.0500 -1.4500
v  1.4500 0.0500 -1.4500
v  1.4500 0.0500 1.4500
v  -1.4500 2.9500 1.4500
v  1.4500 2.9500 1.4500
v  1.4500 2.9500 -1.4500
v  -1.4500 2.9500 -1.4500
# 8 vertices

vn 0.0000 -1.0000 -0.0000
vn 0.0000 1.0000 -0.0000
vn 0.0000 0.0000 1.0000
vn 1.0000 0.0000 -0.0000
vn 0.0000 0.0000 -1.0000
vn -1.0000 0.0000 -0.0000
# 6 vertex normals

vt 1.0000 0.0000 0.0000
vt 1.0000 1.0000 0.0000
vt 0.0000 1.0000 0.0000
vt 0.0000 0.0000 0.0000
# 4 texture coords

g Box006
s 2
f 41/21/31 42/22/31 43/23/31 
f 43/23/31 44/24/31 41/21/31 
s 4
f 45/24/32 46/21/32 47/22/32 
f 47/22/32 48/23/32 45/24/32 
s 8
f 41/24/33 44/21/33 46/22/33 
f 46/22/33 45/23/33 41/24/33 
s 16
f 44/24/34 43/21/34 47/22/34 
f 47/22/34 46/23/34 44/24/34 
s 32
f 43/24/35 42/21/35 48/22/35 
f 48/22/35 47/23/35 43/24/35 
s 64
f 42/24/36 41/21/36 45/22/36 
f 45/22/36 48/23/36 42/24/36 
# 12 faces

