# 3ds Max Wavefront OBJ Exporter v0.97b - (c)2007 guruware
# File Created: 09.02.2011 09:15:32

#
# object Box008
#

v  -0.7500 -0.5000 0.5000
v  -0.7500 -0.5000 -0.5000
v  -0.2500 -0.5000 -0.5000
v  -0.2500 -0.5000 0.5000
v  0.2500 -0.5000 -0.5000
v  -0.7500 0.5000 0.5000
v  -0.2500 0.5000 0.5000
v  -0.2500 0.5000 -0.5000
v  -0.7500 0.5000 -0.5000
v  0.2500 0.5000 -0.5000
# 10 vertices

vn 0.0000 -1.0000 -0.0000
vn 0.0000 1.0000 -0.0000
vn 0.0000 0.0000 1.0000
vn 0.8944 0.0000 0.4472
vn 0.0000 0.0000 -1.0000
vn -1.0000 0.0000 -0.0000
# 6 vertex normals

vt 1.0000 0.0000 0.0000
vt 1.0000 1.0000 0.0000
vt 0.5000 1.0000 0.0000
vt 0.0000 0.0000 0.0000
vt 0.0000 1.0000 0.0000
vt 0.5000 0.0000 0.0000
# 6 texture coords

g Box008
s 2
f 1/1/1 2/2/1 3/3/1 
f 3/3/1 4/4/1 1/1/1 
f 3/3/1 5/5/1 4/4/1 
s 4
f 6/4/2 7/6/2 8/3/2 
f 8/3/2 9/5/2 6/4/2 
f 7/6/2 10/2/2 8/3/2 
s 8
f 1/4/3 4/1/3 7/3/3 
f 7/3/3 6/5/3 1/4/3 
s 16
f 4/4/4 5/1/4 10/2/4 
f 10/2/4 7/5/4 4/4/4 
s 32
f 5/4/5 3/6/5 8/3/5 
f 8/3/5 10/5/5 5/4/5 
f 3/6/5 2/1/5 9/2/5 
f 9/2/5 8/3/5 3/6/5 
s 64
f 2/4/6 1/1/6 6/2/6 
f 6/2/6 9/5/6 2/4/6 
# 16 faces

