# 3ds Max Wavefront OBJ Exporter v0.97b - (c)2007 guruware
# File Created: 08.02.2011 22:40:33

#
# object Box002
#

v  -0.1247 0.0000 -3.0194
v  -0.1247 0.0000 1.9806
v  -0.1247 5.0000 1.9806
v  0.0975 0.0000 1.9806
v  0.0975 0.0000 -3.0194
v  0.0975 5.0000 1.9806
# 6 vertices

vn -1.0000 0.0000 -0.0000
vn 1.0000 0.0000 -0.0000
# 2 vertex normals

vt 0.0000 0.0000 0.0000
vt 1.0000 0.0000 0.0000
vt 1.0000 1.0000 0.0000
# 3 texture coords

g Box002
s 64
f 1/1/1 2/2/1 3/3/1 
f 4/2/2 5/1/2 6/3/2 
# 2 faces

